<svg width="40" height="25" viewBox="0 0 40 25" fill="none" xmlns="http://www.w3.org/2000/svg">
<path d="M2.48981 10.9915C1.60947 10.9915 0.895822 11.7051 0.895822 12.5854C0.895822 13.4658 1.60947 14.1794 2.48981 14.1794V10.9915ZM39.4816 13.7126C40.1041 13.0901 40.1041 12.0808 39.4816 11.4583L29.3375 1.31427C28.715 0.691784 27.7058 0.691784 27.0833 1.31427C26.4608 1.93676 26.4608 2.94602 27.0833 3.56851L36.1002 12.5854L27.0833 21.6024C26.4608 22.2249 26.4608 23.2341 27.0833 23.8566C27.7058 24.4791 28.715 24.4791 29.3375 23.8566L39.4816 13.7126ZM2.48981 14.1794H38.3545V10.9915H2.48981V14.1794Z" fill="white"/>
</svg>
